<svg xmlns="http://www.w3.org/2000/svg" width="900" height="600" viewBox="0 0 900 600" fill="none">
  <defs>
    <linearGradient id="p" x1="0" y1="0" x2="0" y2="600" gradientUnits="userSpaceOnUse">
      <stop offset="0" stop-color="#F7F2EA" stop-opacity="0.92"/>
      <stop offset="1" stop-color="#EFE7DE" stop-opacity="0.90"/>
    </linearGradient>
    <filter id="n" x="-20%" y="-20%" width="140%" height="140%">
      <feTurbulence type="fractalNoise" baseFrequency="0.85" numOctaves="3" stitchTiles="stitch" result="t"/>
      <feColorMatrix in="t" type="matrix"
        values="1 0 0 0 0
                0 1 0 0 0
                0 0 1 0 0
                0 0 0 0.12 0" result="a"/>
      <feGaussianBlur in="a" stdDeviation="0.35" result="b"/>
      <feMerge>
        <feMergeNode in="b"/>
        <feMergeNode in="SourceGraphic"/>
      </feMerge>
    </filter>
  </defs>

  <rect width="900" height="600" rx="28" fill="url(#p)"/>
  <g filter="url(#n)">
    <rect x="0" y="0" width="900" height="600" rx="28" fill="#000" opacity="0.06"/>
  </g>

  <g opacity="0.12">
    <path d="M80 150C220 120 310 210 450 180C590 150 690 220 820 170" stroke="#C9B6A6" stroke-width="1.1"/>
    <path d="M70 220C210 190 320 270 460 240C600 210 690 270 830 230" stroke="#C9B6A6" stroke-width="1.1"/>
    <path d="M60 290C200 260 320 330 460 305C600 280 710 340 840 300" stroke="#C9B6A6" stroke-width="1.1"/>
    <path d="M75 360C220 330 320 410 470 380C620 350 720 415 850 370" stroke="#C9B6A6" stroke-width="1.1"/>
    <path d="M85 430C235 395 330 485 480 455C630 425 730 490 860 445" stroke="#C9B6A6" stroke-width="1.1"/>
  </g>
</svg>

